<?xml version="1.0" encoding="UTF-8"?>
<svg id="_Слой_1" data-name="Слой 1" xmlns="http://www.w3.org/2000/svg" viewBox="0 0 1000 1000">
  <defs>
    <style>
      .cls-1 {
        fill: #353535;
      }

      .cls-1, .cls-2 {
        stroke-width: 0px;
      }

      .cls-2 {
        fill: #43a4fc;
      }
    </style>
  </defs>
  <g>
    <polygon class="cls-2" points="284.42 496.32 269.68 509.24 261.13 517.74 256.02 528.63 252.75 534.98 250.88 527.52 249.95 516.35 257.4 498.65 269.68 479.77 283.49 469.3 293.27 458.13 296.99 449.74 304.91 433.91 304.91 428.86 299.32 417.14 298.86 407.36 304.91 387.14 319.82 374.75 330.99 370.56 343.21 370.56 352.89 372.43 358.47 376.15 367.79 385.47 371.05 391.06 384.56 395.71 390.61 398.51 394.34 405.96 388.28 419.93 379.67 425.76 358.24 428.08 359.17 448.11 364.3 462.08 365.23 476.06 356.38 497.02 348.46 522.63 348.46 536.61 355.91 546.85 368.95 560.36 367.56 562.22 356.3 565.3 333.31 565.31 340.08 560.83 330.76 550.58 332.62 537.07 335.42 517.51 333.09 491.43 335.89 477.92 349.86 470.47 349.39 463.48 324.24 441.13 313.99 452.77 307.01 473.26 295.36 488.17 284.42 496.32"/>
    <g>
      <path class="cls-1" d="m355.56,428.46c-2.02-.78-3.47-1.34-4.91-1.91-1.59-.63-2.86-1.57-2.21-3.5.67-1.99,2.23-1.75,3.88-1.31,3.47.93,6.93,1.97,10.46,2.56,2.75.47,5.61.51,8.41.44,12.45-.28,18.35-10.71,19.12-18.99.46-5.05-1.14-7.77-6.06-8.27-10.17-1.02-17.11-6.11-22.86-14.41-7.15-10.32-18.29-11.44-29.55-9.59-18.27,3-32.32,22.13-30.21,40.55.31,2.74,1.19,5.55,2.43,8.01,4.11,8.09,12.24,9.79,19.13,3.91,7.49-6.4,11.62-14.68,12.08-24.56.15-3.24-.46-6.53-.79-9.78-.16-1.63-.33-3.35,1.64-3.85,2.22-.57,2.94,1.09,3.44,2.86,3.89,13.66-2.86,32.39-14.62,40.56-3.76,2.61-7.89,3.7-12.45,3.05-1.37-.19-2.73-.43-4.35-.69-.59,1.36-1.17,2.61-1.68,3.88-5.72,14.33-14.05,26.8-25.69,37.07-9.94,8.77-18.66,18.62-23.85,30.99-1.91,4.55-2.87,9.54-3.91,14.41-.47,2.17-.08,4.52-.08,7.08.99-.42,1.4-.47,1.46-.64,4.9-13.46,15.43-22.14,26.01-30.79,4.72-3.86,9.51-7.64,14.15-11.61,5.98-5.12,10-11.37,11.82-19.23,1.11-4.82,3.21-9.47,5.35-13.96,2.49-5.21,6.68-9.03,11.72-11.83,3.05-1.69,4.16-1.53,5.51,1.63,1.66,3.87,4.28,6.05,8.16,7.67,2.35.98,4.33,3.52,5.79,5.79,1.74,2.71,3.36,5.2,6.53,6.39.92.35,1.92,1.23,2.29,2.12,2.23,5.21-.53,11.88-5.78,14.27-.71.32-1.46.55-2.2.82-6.68,2.48-8.8,5.73-8.07,12.88.3,2.95.8,5.9,1.51,8.78,2.7,10.93,2.09,21.71-.95,32.47-1.27,4.51-2.22,9.12-3.49,13.64-.7,2.48-.14,4.07,2.1,5.48,3.4,2.14,5.93,5.09,6.63,9.26.61,3.61-.3,4.91-4.06,5.08-3.59.16-7.2.11-10.8.03-1.66-.04-3.3-.64-3.19-2.66.11-1.94,1.67-2.44,3.39-2.44,2.8,0,5.6,0,8.63,0-.23-3.36-2.54-4.66-4.62-5.71-3.61-1.83-4.4-4.37-3.4-8.11,1.57-5.89,2.73-11.89,4.3-17.78,2.53-9.43,2.53-18.83.43-28.34-.91-4.11-1.56-8.33-1.75-12.52-.34-7.59,2.58-11.62,9.68-14.23,1.17-.43,2.42-.7,3.54-1.23,4.21-2,4.36-5.75.77-8.61-2.13-1.69-3.94-3.97-5.38-6.3-1.64-2.68-3.54-4.86-6.63-5.52-3.08-.66-4.92-2.46-6.07-5.25-.28-.69-.81-1.28-1.47-2.29-3.64,2.01-6.44,4.73-8.15,8.2-2.13,4.32-4.35,8.79-5.34,13.45-2.12,9.92-7.75,17.3-15.22,23.57-6.83,5.74-13.98,11.1-20.6,17.07-4.27,3.85-8.15,8.23-11.61,12.82-4.35,5.76-6.43,12.47-6.02,19.82.03.47.19,1.04-.02,1.39-.64,1.11-1.22,2.53-2.22,3.04-.53.27-2.27-.9-2.82-1.8-2.97-4.89-4.59-10.25-5-15.97-.73-10.2,2.17-19.5,7.1-28.26,5.82-10.34,13.45-19.22,22.38-26.98,11.5-9.99,19.37-22.4,24.92-36.44,1-2.54.93-4.47-.92-6.79-4.9-6.14-5.45-13.45-4.7-20.97,1.8-17.85,14.87-33.41,31.54-37.46,7.63-1.86,15.21-1.59,22.73.58,5.74,1.66,10.45,4.88,14.15,9.57.87,1.11,1.82,2.17,2.52,3.39,3.42,5.93,8.72,8.71,15.34,9.45,1.7.19,3.39.62,5.03,1.13,4.34,1.35,6.7,4.4,7.28,8.86,1.56,11.98-7.5,27-22,27.74-3.89.2-7.79.03-11.9.03-1.81,2.34-1.74,5.31-1.33,7.94.71,4.6,1.37,9.44,3.34,13.56,6.42,13.42,4.9,26.37-.86,39.43-3.28,7.43-6.61,14.87-9.28,22.53-2.21,6.35-3.29,13.02-2.28,19.88.97,6.59,3.96,11.76,9.75,15.23,2.01,1.2,4.01,2.49,5.78,4.01,1.39,1.2,2.71,2.66,3.57,4.27,3.24,6.06,1.66,8.68-5.08,8.74-3.6.03-7.2.06-10.8-.02-1.83-.04-3.67-.59-3.48-2.86.16-1.93,1.89-2.26,3.56-2.27,1.88,0,3.76-.01,5.64-.01,1.7,0,3.41,0,6.37,0-1.54-1.94-2.28-3.21-3.33-4.1-1.42-1.2-3.04-2.19-4.66-3.14-8.49-4.96-12.29-12.61-12.67-22.17-.41-10.4,2.4-20.13,6.44-29.56,2.28-5.32,4.79-10.54,7.01-15.88,4.43-10.63,4.77-21.22-.44-31.78-3.87-7.83-4.5-16.18-3.02-25.02Z"/>
      <path class="cls-1" d="m309.08,559.75c-1.48-3.85-4.36-5.18-6.89-6.96-1.14-.8-2.39-2.12-2.58-3.35-.11-.74,1.58-2.05,2.7-2.65,8.92-4.74,12.97-12.11,11.64-21.46-1.24-8.73-7.6-15.25-16.88-17.29-1.22-.27-2.62-.2-3.63-.8-.9-.53-2.02-1.88-1.88-2.65.15-.82,1.62-1.82,2.62-1.96,1.5-.21,3.13.09,4.63.48,10.2,2.67,17.29,8.78,19.74,19.22,2.38,10.14-.44,18.86-8.48,25.72-.47.4-.96.79-1.43,1.2-.11.09-.15.26-.43.77.71.76,1.55,1.59,2.31,2.49,1,1.19,2.12,2.34,2.87,3.68,3.68,6.56,2.22,9.14-5.14,9.08-13.92-.1-27.85,0-41.75-.51-10.83-.4-20.91-3.7-29.71-10.28-20.22-15.12-21.09-42.46-8.39-60.44.45-.63.93-1.44,1.58-1.68.9-.34,2.28-.64,2.87-.19.66.49,1.05,1.94.85,2.82-.26,1.15-1.18,2.16-1.86,3.21-14.85,23.08-4.5,51.36,21.82,58.97,5.5,1.59,11.34,2.52,17.06,2.73,11.72.43,23.46.17,35.19.17.89,0,1.78-.19,3.16-.34Z"/>
    </g>
  </g>
  <g>
    <path class="cls-2" d="m403.05,478.18h14.99v44.27h28.84v13.05h-43.83v-57.33Z"/>
    <path class="cls-2" d="m500.06,535.51h-14.82v-4.14c-3.44,3.35-7.94,5.2-13.14,5.2-11.38,0-19.67-9-19.67-23.11s8.29-23.11,19.67-23.11c5.2,0,9.7,1.94,13.14,5.29v-4.23h14.82v44.1Zm-14.29-22.05c0-5.73-3.62-9.17-9.17-9.17s-9.17,3.44-9.17,9.17,3.62,9.17,9.17,9.17,9.17-3.44,9.17-9.17Z"/>
    <path class="cls-2" d="m512.22,491.41h14.82v4.59c3.26-3.53,7.85-5.64,13.14-5.64v15.35c-1.15-.26-3.09-.44-4.5-.44-3.97,0-7.67,2.12-8.64,6v24.25h-14.82v-44.1Z"/>
    <path class="cls-2" d="m555.7,471.74c4.59,0,7.5,2.91,7.5,7.5s-2.91,7.5-7.5,7.5-7.58-2.82-7.58-7.5,3-7.5,7.58-7.5Zm-7.41,19.67h14.82v44.1h-14.82v-44.1Z"/>
    <path class="cls-2" d="m575.19,491.41h14.82v4.59c3.26-3.53,7.85-5.64,13.14-5.64,13.49,0,17.9,10.14,17.9,22.31v22.84h-14.82v-22.67c0-4.85-2.91-8.55-7.58-8.55-5.29,0-8.47,3.26-8.64,8.73v22.49h-14.82v-44.1Z"/>
    <path class="cls-2" d="m627.13,481.44v-3.26h15.52l15.88,40.04h1.06l15.88-40.04h15.08v3.26l-22.58,54.06h-17.82l-23.02-54.06Z"/>
    <path class="cls-2" d="m738.7,518.93v2.82c-2.73,8.38-11.99,14.82-23.99,14.82-14.02,0-24.34-9-24.34-23.11s10.32-23.11,24.34-23.11c13.23,0,22.75,7.94,23.99,19.58v5.47h-33.25c.71,4.85,4.23,7.76,9.26,7.76,3.62,0,6.79-1.32,8.47-4.23h15.52Zm-32.37-11.38h16.76c-1.5-3.09-4.23-4.85-8.38-4.85-3.88,0-6.88,1.76-8.38,4.85Z"/>
    <path class="cls-2" d="m764.88,491.5h9v13.76h-9v10.58c0,4.15,1.94,6.53,5.82,6.53.44,0,2.29-.18,2.73-.26v13.76c-1.68.44-5.29.71-7.23.71-12,0-16.14-9.08-16.14-20.55v-10.76h-5.29v-13.76h5.29v-8.91l14.82-4.41v13.32Z"/>
  </g>
  <g>
    <path class="cls-1" d="m403.44,565.29v-17.18h7.68c1.95,0,3.46.38,4.54,1.14s1.62,1.86,1.62,3.3-.51,2.47-1.53,3.23c-1.02.76-2.39,1.14-4.11,1.14l.47-.86c1.91,0,3.4.38,4.44,1.13,1.05.75,1.57,1.86,1.57,3.31s-.55,2.68-1.64,3.52c-1.1.84-2.72,1.26-4.88,1.26h-8.15Zm3.17-9.87h4.27c1.03,0,1.82-.21,2.36-.61.54-.41.81-1.01.81-1.82s-.27-1.41-.81-1.82c-.54-.41-1.33-.61-2.36-.61h-4.27v4.86Zm0,7.41h4.88c1.13,0,1.98-.21,2.54-.62.56-.42.85-1.07.85-1.95,0-.83-.28-1.46-.85-1.88-.56-.42-1.41-.62-2.54-.62h-4.88v5.08Z"/>
    <path class="cls-1" d="m428.28,562.59h9.69v2.7h-12.89v-17.18h12.54v2.7h-9.35v11.78Zm-.25-7.34h8.54v2.63h-8.54v-2.63Z"/>
    <path class="cls-1" d="m448.48,565.29v-15.27l.76.79h-6.43v-2.7h14.53v2.7h-6.43l.71-.79v15.27h-3.14Z"/>
    <path class="cls-1" d="m466.62,562.59h9.69v2.7h-12.89v-17.18h12.54v2.7h-9.35v11.78Zm-.25-7.34h8.54v2.63h-8.54v-2.63Z"/>
    <path class="cls-1" d="m483.21,565.29v-17.18h7.07c1.52,0,2.83.24,3.92.72,1.09.48,1.93,1.18,2.52,2.1.59.92.88,2.01.88,3.29s-.29,2.34-.88,3.25-1.43,1.61-2.52,2.11c-1.09.5-2.39.75-3.92.75h-5.28l1.4-1.47v6.43h-3.19Zm3.19-6.09l-1.4-1.57h5.13c1.41,0,2.47-.3,3.18-.9.71-.6,1.07-1.44,1.07-2.52s-.36-1.92-1.07-2.52-1.77-.9-3.18-.9h-5.13l1.4-1.57v9.96Z"/>
    <path class="cls-1" d="m503.95,565.29v-17.18h3.17v12.2l9.23-12.2h2.97v17.18h-3.17v-12.17l-9.2,12.17h-2.99Z"/>
    <path class="cls-1" d="m530.66,565.29h-3.19v-17.18h3.19v17.18Zm9.13-7.36h-9.38v-2.72h9.38v2.72Zm-.25-9.82h3.17v17.18h-3.17v-17.18Z"/>
    <path class="cls-1" d="m548.7,565.29l7.73-17.18h3.14l7.76,17.18h-3.36l-6.63-15.49h1.28l-6.65,15.49h-3.26Zm3.56-3.98l.88-2.5h9.25l.86,2.5h-11Z"/>
    <path class="cls-1" d="m573.29,565.29v-17.18h7.07c1.52,0,2.83.24,3.91.72s1.93,1.18,2.52,2.1c.59.92.88,2.01.88,3.29s-.29,2.34-.88,3.25c-.59.91-1.43,1.61-2.52,2.11-1.09.5-2.39.75-3.91.75h-5.28l1.4-1.47v6.43h-3.19Zm3.19-6.09l-1.4-1.57h5.13c1.41,0,2.47-.3,3.18-.9.71-.6,1.07-1.44,1.07-2.52s-.36-1.92-1.07-2.52c-.71-.6-1.77-.9-3.18-.9h-5.13l1.4-1.57v9.96Z"/>
    <path class="cls-1" d="m597.22,565.29h-3.19v-17.18h3.19v17.18Zm9.13-7.36h-9.38v-2.72h9.38v2.72Zm-.25-9.82h3.17v17.18h-3.17v-17.18Z"/>
    <path class="cls-1" d="m615.26,565.29l7.73-17.18h3.14l7.76,17.18h-3.36l-6.63-15.49h1.28l-6.65,15.49h-3.26Zm3.56-3.98l.88-2.5h9.25l.86,2.5h-11Z"/>
    <path class="cls-1" d="m649.97,565.29v-17.18h3.12v17.18h-3.12Zm2.21-7.24v-2.72h5.77v2.72h-5.77Zm6.21-1.01l-2.92-.39,5.87-8.54h3.39l-6.33,8.93Zm2.95,8.25l-5.82-8.37,2.58-1.57,6.85,9.94h-3.61Z"/>
    <path class="cls-1" d="m670.56,565.51c-.28,0-.56-.02-.85-.05-.29-.03-.59-.09-.92-.17l.22-2.8c.23.07.47.1.74.1.7,0,1.26-.28,1.66-.83.4-.56.69-1.38.87-2.48.18-1.1.3-2.46.37-4.07l.25-7.09h12.64v17.18h-3.17v-15.27l.76.79h-8.17l.69-.81-.17,5.1c-.07,1.69-.19,3.17-.37,4.47-.18,1.29-.45,2.38-.81,3.28-.36.89-.84,1.56-1.45,2s-1.37.66-2.28.66Z"/>
    <path class="cls-1" d="m693.7,565.29v-17.18h3.17v17.18h-3.17Z"/>
    <path class="cls-1" d="m708.23,565.29h-3.19v-17.18h3.19v17.18Zm9.13-7.36h-9.38v-2.72h9.38v2.72Zm-.25-9.82h3.17v17.18h-3.17v-17.18Z"/>
    <path class="cls-1" d="m728.46,565.29v-17.18h3.17v17.18h-3.17Z"/>
    <path class="cls-1" d="m739.8,565.29v-17.18h3.12v17.18h-3.12Zm2.21-7.24v-2.72h5.77v2.72h-5.77Zm6.21-1.01l-2.92-.39,5.87-8.54h3.39l-6.33,8.93Zm2.95,8.25l-5.82-8.37,2.58-1.57,6.85,9.94h-3.61Z"/>
    <path class="cls-1" d="m757.81,565.29l7.73-17.18h3.14l7.76,17.18h-3.36l-6.63-15.49h1.28l-6.65,15.49h-3.26Zm3.56-3.98l.88-2.5h9.25l.86,2.5h-11Z"/>
  </g>
</svg>